<mxfile host="app.diagrams.net" modified="2023-06-26T09:17:53.061Z" agent="Mozilla/5.0 (Macintosh; Intel Mac OS X 10_15_7) AppleWebKit/537.36 (KHTML, like Gecko) Chrome/113.0.0.0 Safari/537.36" etag="5VIgVlwpPAagOkdM6Ef_" version="21.2.1" type="github">
  <diagram name="Page-1" id="kDTRX-aqQ429hT4CvDo6">
    <mxGraphModel dx="2261" dy="796" grid="1" gridSize="10" guides="1" tooltips="1" connect="1" arrows="1" fold="1" page="1" pageScale="1" pageWidth="827" pageHeight="1169" math="0" shadow="0">
      <root>
        <mxCell id="0" />
        <mxCell id="1" parent="0" />
        <mxCell id="_iUdjSkba5EW7GDh6NPc-28" value="" style="rounded=1;whiteSpace=wrap;html=1;dashed=1;gradientColor=none;arcSize=3;" parent="1" vertex="1">
          <mxGeometry x="-650" y="170" width="1040" height="610" as="geometry" />
        </mxCell>
        <mxCell id="_iUdjSkba5EW7GDh6NPc-1" value="vCloud" style="points=[[0,0],[0.25,0],[0.5,0],[0.75,0],[1,0],[1,0.25],[1,0.5],[1,0.75],[1,1],[0.75,1],[0.5,1],[0.25,1],[0,1],[0,0.75],[0,0.5],[0,0.25]];outlineConnect=0;gradientColor=none;html=1;whiteSpace=wrap;fontSize=12;fontStyle=0;container=1;pointerEvents=0;collapsible=0;recursiveResize=0;shape=mxgraph.aws4.group;grIcon=mxgraph.aws4.group_aws_cloud_alt;strokeColor=#232F3E;fillColor=none;verticalAlign=top;align=left;spacingLeft=30;fontColor=#232F3E;dashed=0;" parent="1" vertex="1">
          <mxGeometry x="-300" y="200" width="660" height="550" as="geometry" />
        </mxCell>
        <mxCell id="_iUdjSkba5EW7GDh6NPc-18" style="edgeStyle=orthogonalEdgeStyle;rounded=0;orthogonalLoop=1;jettySize=auto;html=1;" parent="_iUdjSkba5EW7GDh6NPc-1" source="_iUdjSkba5EW7GDh6NPc-11" target="_iUdjSkba5EW7GDh6NPc-15" edge="1">
          <mxGeometry relative="1" as="geometry" />
        </mxCell>
        <object placeholders="1" c4Name="vCloud Ingestion API" c4Type="Software System" c4Description="" label="&lt;font style=&quot;font-size: 16px&quot;&gt;&lt;b&gt;%c4Name%&lt;/b&gt;&lt;/font&gt;&lt;div&gt;[%c4Type%]&lt;/div&gt;&lt;br&gt;&lt;div&gt;&lt;font style=&quot;font-size: 11px&quot;&gt;&lt;font color=&quot;#cccccc&quot;&gt;%c4Description%&lt;/font&gt;&lt;/div&gt;" id="_iUdjSkba5EW7GDh6NPc-11">
          <mxCell style="rounded=1;whiteSpace=wrap;html=1;labelBackgroundColor=none;fillColor=#1061B0;fontColor=#ffffff;align=center;arcSize=10;strokeColor=#0D5091;metaEdit=1;resizable=0;points=[[0.25,0,0],[0.5,0,0],[0.75,0,0],[1,0.25,0],[1,0.5,0],[1,0.75,0],[0.75,1,0],[0.5,1,0],[0.25,1,0],[0,0.75,0],[0,0.5,0],[0,0.25,0]];" parent="_iUdjSkba5EW7GDh6NPc-1" vertex="1">
            <mxGeometry x="80" y="50" width="240" height="120" as="geometry" />
          </mxCell>
        </object>
        <object placeholders="1" c4Name="vCloud Query API" c4Type="Software System" c4Description="" label="&lt;font style=&quot;font-size: 16px&quot;&gt;&lt;b&gt;%c4Name%&lt;/b&gt;&lt;/font&gt;&lt;div&gt;[%c4Type%]&lt;/div&gt;&lt;br&gt;&lt;div&gt;&lt;font style=&quot;font-size: 11px&quot;&gt;&lt;font color=&quot;#cccccc&quot;&gt;%c4Description%&lt;/font&gt;&lt;/div&gt;" id="_iUdjSkba5EW7GDh6NPc-14">
          <mxCell style="rounded=1;whiteSpace=wrap;html=1;labelBackgroundColor=none;fillColor=#FF0000;fontColor=#ffffff;align=center;arcSize=10;strokeColor=#0D5091;metaEdit=1;resizable=0;points=[[0.25,0,0],[0.5,0,0],[0.75,0,0],[1,0.25,0],[1,0.5,0],[1,0.75,0],[0.75,1,0],[0.5,1,0],[0.25,1,0],[0,0.75,0],[0,0.5,0],[0,0.25,0]];" parent="_iUdjSkba5EW7GDh6NPc-1" vertex="1">
            <mxGeometry x="80" y="380" width="240" height="120" as="geometry" />
          </mxCell>
        </object>
        <mxCell id="_iUdjSkba5EW7GDh6NPc-19" style="edgeStyle=orthogonalEdgeStyle;rounded=0;orthogonalLoop=1;jettySize=auto;html=1;entryX=1;entryY=0.5;entryDx=0;entryDy=0;entryPerimeter=0;exitX=0.5;exitY=1;exitDx=0;exitDy=0;exitPerimeter=0;strokeColor=#808080;dashed=1;strokeWidth=2;" parent="_iUdjSkba5EW7GDh6NPc-1" source="_iUdjSkba5EW7GDh6NPc-15" target="_iUdjSkba5EW7GDh6NPc-14" edge="1">
          <mxGeometry relative="1" as="geometry" />
        </mxCell>
        <object placeholders="1" c4Type="Database" c4Container="Container" c4Technology="DynamoDB, MySQL" c4Description="Data storage" label="&lt;font style=&quot;font-size: 16px&quot;&gt;&lt;b&gt;%c4Type%&lt;/b&gt;&lt;/font&gt;&lt;div&gt;[%c4Container%:&amp;nbsp;%c4Technology%]&lt;/div&gt;&lt;br&gt;&lt;div&gt;&lt;font style=&quot;font-size: 11px&quot;&gt;&lt;font color=&quot;#E6E6E6&quot;&gt;%c4Description%&lt;/font&gt;&lt;/div&gt;" id="_iUdjSkba5EW7GDh6NPc-15">
          <mxCell style="shape=cylinder3;size=15;whiteSpace=wrap;html=1;boundedLbl=1;rounded=0;labelBackgroundColor=none;fillColor=#1061b0;fontSize=12;fontColor=#ffffff;align=center;strokeColor=#0E7DAD;metaEdit=1;points=[[0.5,0,0],[1,0.25,0],[1,0.5,0],[1,0.75,0],[0.5,1,0],[0,0.75,0],[0,0.5,0],[0,0.25,0]];resizable=0;" parent="_iUdjSkba5EW7GDh6NPc-1" vertex="1">
            <mxGeometry x="380" y="215" width="240" height="120" as="geometry" />
          </mxCell>
        </object>
        <mxCell id="_iUdjSkba5EW7GDh6NPc-24" value="&lt;font style=&quot;font-size: 15px;&quot;&gt;This System&lt;/font&gt;" style="rounded=1;whiteSpace=wrap;html=1;strokeColor=#808080;fillColor=#FF0000;dashed=1;dashPattern=8 8;strokeWidth=2;" parent="_iUdjSkba5EW7GDh6NPc-1" vertex="1">
          <mxGeometry x="510" y="20" width="130" height="40" as="geometry" />
        </mxCell>
        <mxCell id="_iUdjSkba5EW7GDh6NPc-17" style="edgeStyle=orthogonalEdgeStyle;rounded=0;orthogonalLoop=1;jettySize=auto;html=1;entryX=0;entryY=0.5;entryDx=0;entryDy=0;entryPerimeter=0;curved=1;" parent="1" source="_iUdjSkba5EW7GDh6NPc-4" target="_iUdjSkba5EW7GDh6NPc-11" edge="1">
          <mxGeometry relative="1" as="geometry" />
        </mxCell>
        <mxCell id="_iUdjSkba5EW7GDh6NPc-21" value="Data" style="edgeLabel;html=1;align=center;verticalAlign=middle;resizable=0;points=[];" parent="_iUdjSkba5EW7GDh6NPc-17" vertex="1" connectable="0">
          <mxGeometry x="-0.4375" y="1" relative="1" as="geometry">
            <mxPoint as="offset" />
          </mxGeometry>
        </mxCell>
        <object c4Name="Data Collector &amp; Repeater" c4Type="Component" c4Technology="e.g. HTTP, BLE" c4Description="It cloud be a mobile app, a Bluetooth Gateway, or any  other client with similar functionality" label="&lt;font style=&quot;font-size: 16px&quot;&gt;&lt;b&gt;%c4Name%&lt;/b&gt;&lt;/font&gt;&lt;div&gt;[%c4Type%: %c4Technology%]&lt;/div&gt;&lt;br&gt;&lt;div&gt;&lt;font style=&quot;font-size: 11px&quot;&gt;%c4Description%&lt;/font&gt;&lt;/div&gt;" placeholders="1" id="_iUdjSkba5EW7GDh6NPc-4">
          <mxCell style="rounded=1;whiteSpace=wrap;html=1;labelBackgroundColor=none;fillColor=#63BEF2;fontColor=#ffffff;align=center;arcSize=9;strokeColor=#2086C9;metaEdit=1;resizable=0;points=[[0.25,0,0],[0.5,0,0],[0.75,0,0],[1,0.25,0],[1,0.5,0],[1,0.75,0],[0.75,1,0],[0.5,1,0],[0.25,1,0],[0,0.75,0],[0,0.5,0],[0,0.25,0]];" parent="1" vertex="1">
            <mxGeometry x="-620" y="250" width="240" height="120" as="geometry" />
          </mxCell>
        </object>
        <mxCell id="_iUdjSkba5EW7GDh6NPc-20" style="edgeStyle=orthogonalEdgeStyle;rounded=0;orthogonalLoop=1;jettySize=auto;html=1;entryX=1;entryY=0.5;entryDx=0;entryDy=0;entryPerimeter=0;strokeColor=#808080;strokeWidth=2;dashed=1;" parent="1" source="_iUdjSkba5EW7GDh6NPc-14" edge="1">
          <mxGeometry relative="1" as="geometry">
            <mxPoint x="-380" y="640" as="targetPoint" />
          </mxGeometry>
        </mxCell>
        <object c4Name="Data Query Client" c4Type="Component" c4Technology="e.g. HTTP" c4Description="A HTTP client" label="&lt;font style=&quot;font-size: 16px&quot;&gt;&lt;b&gt;%c4Name%&lt;/b&gt;&lt;/font&gt;&lt;div&gt;[%c4Type%: %c4Technology%]&lt;/div&gt;&lt;br&gt;&lt;div&gt;&lt;font style=&quot;font-size: 11px&quot;&gt;%c4Description%&lt;/font&gt;&lt;/div&gt;" placeholders="1" id="_iUdjSkba5EW7GDh6NPc-23">
          <mxCell style="rounded=1;whiteSpace=wrap;html=1;labelBackgroundColor=none;fillColor=#63BEF2;fontColor=#ffffff;align=center;arcSize=9;strokeColor=#2086C9;metaEdit=1;resizable=0;points=[[0.25,0,0],[0.5,0,0],[0.75,0,0],[1,0.25,0],[1,0.5,0],[1,0.75,0],[0.75,1,0],[0.5,1,0],[0.25,1,0],[0,0.75,0],[0,0.5,0],[0,0.25,0]];" parent="1" vertex="1">
            <mxGeometry x="-620" y="580" width="240" height="120" as="geometry" />
          </mxCell>
        </object>
      </root>
    </mxGraphModel>
  </diagram>
</mxfile>
